<?xml version="1.0" encoding="UTF-8" standalone="no"?>
<!DOCTYPE svg PUBLIC "-//W3C//DTD SVG 1.1//EN" "http://www.w3.org/Graphics/SVG/1.1/DTD/svg11.dtd">



<svg t="1635471306714" class="icon" viewBox="0 0 1024 1024" version="1.1" xmlns="http://www.w3.org/2000/svg" p-id="10206" width="400" height="400">
	<path d="M668.9 286L886 392.3v363.6h-0.4v1.3c0 6-4.8 10.8-10.8 10.8h-402c-5.9 0-10.8-4.8-10.8-10.8V392.3L668.9 286z" fill="#FFDF9D" p-id="10207"></path>
	<path d="M550 544h80c11 0 20 9 20 20v202H530V564c0-11 9-20 20-20z" fill="#474F66" p-id="10208"></path><path d="M675.6 249c4.7 0 9.4 1.3 13.6 4.1l236 156.5c11.2 7.4 14.2 22.5 6.8 33.6-7.4 11.2-22.5 14.2-33.7 6.8L674 301.2 449.8 449.9c-11.2 7.4-26.3 4.4-33.7-6.8-7.4-11.2-4.4-26.2 6.8-33.6l236-156.5c4.2-2.8 8.9-4.1 13.6-4.1l1.6 0.2 1.5-0.1z" fill="#FE5F69" p-id="10209"></path>
	<path d="M677 449h160v165H677z" fill="#474F66" p-id="10210"></path>
	<path d="M687 462h65v64h-65zM763 462h64v64h-64zM687 537h65v65h-65zM763 537h64v65h-64z" fill="#28C2E3" p-id="10211"></path>
	<path d="M790 288h70v84h-70z" fill="#FE5F69" p-id="10212"></path>
	<path d="M778 260c0-4.4 3.6-8 8-8h78c4.4 0 8 3.6 8 8v32c0 4.4-3.6 8-8 8h-78c-4.4 0-8-3.6-8-8v-32z" fill="#FE5F69" p-id="10213"></path>
	<path d="M144 591h147l-9.5 210.7c0 7.9-6.4 14.3-14.3 14.3H163c-7.9 0-14.3-6.4-14.3-14.3 0-53.7-2.7-107.5-4.1-161.2L144 591z" fill="#FFE9BE" p-id="10214"></path>
	<path d="M145 572c0-9.4 7.6-17 17-17h108c9.4 0 17 7.6 17 17s-7.6 17-17 17H162c-9.4 0-17-7.6-17-17z" fill="#FFC95C" p-id="10215"></path>
	<path d="M131 582c0-6.1 4.9-11 11-11h150c6.1 0 11 4.9 11 11s-4.9 11-11 11H142c-6.1 0-11-4.9-11-11z" fill="#FFAC05" p-id="10216"></path>
	<path d="M178 681c0-23.2 18.8-42 42-42s42 18.8 42 42-18.8 42-42 42-42-18.8-42-42z" fill="#FFDF9D" p-id="10217"></path>
	<path d="M235.7 701.7s6.9-17.2-7.1-30.4c-13.9-13-33.6-7.9-33.6-7.9s4.6 2.7 5.6 12.9c1.2 14.2 10.8 31.5 35.1 25.4z" fill="#64BA8C" p-id="10218"></path>
	<path d="M545 599H398l9.5 210.8c0 7.9 6.4 14.3 14.3 14.3H526c7.9 0 14.3-6.4 14.3-14.3 0-53.7 2.7-107.5 4.1-161.2l0.6-49.6z" fill="#BDE1CE" p-id="10219"></path>
	<path d="M545 580c0-9.4-7.6-17-17-17H419c-9.4 0-17 7.6-17 17s7.6 17 17 17h109c9.4 0 17-7.6 17-17z" fill="#8BCBA9" p-id="10220"></path><path d="M559 590c0-6.1-4.9-11-11-11H398c-6.1 0-11 4.9-11 11s4.9 11 11 11h150c6.1 0 11-4.9 11-11z" fill="#64BA8C" p-id="10221"></path>
	<path d="M512 689c0-23.2-18.8-42-42-42s-42 18.8-42 42 18.8 42 42 42 42-18.8 42-42z" fill="#F2F2F2" p-id="10222"></path><path d="M453.7 709.7s-6.9-17.2 7.2-30.4c13.9-13 33.6-7.9 33.6-7.9s-4.6 2.8-5.6 12.9c-1.3 14.2-10.9 31.5-35.2 25.4z" fill="#64BA8C" p-id="10223"></path>
	<path d="M259 551h178l-11.5 254.8c0 9.5-7.7 17.2-17.3 17.2H282c-9.5 0-17.3-7.7-17.3-17.2 0-65-3.3-129.9-4.9-194.9L259 551z" fill="#FE9FA5" p-id="10224"></path><path d="M260 528.5c0-11.3 9.2-20.5 20.5-20.5h131c11.3 0 20.5 9.2 20.5 20.5s-9.2 20.5-20.5 20.5h-131c-11.3 0-20.5-9.2-20.5-20.5z" fill="#FE5F69" p-id="10225"></path>
	<path d="M243 540c0-7.2 5.8-13 13-13h182c7.2 0 13 5.8 13 13s-5.8 13-13 13H256c-7.2 0-13-5.8-13-13z" fill="#FD0818" p-id="10226"></path><path d="M300 660.5c0-27.9 22.6-50.5 50.5-50.5s50.5 22.6 50.5 50.5-22.6 50.5-50.5 50.5-50.5-22.6-50.5-50.5z" fill="#FFDFE1" p-id="10227"></path>
	<path d="M329.2 686s-8.4-20.8 8.6-36.6c16.8-15.7 40.6-9.5 40.6-9.5s-5.6 3.3-6.7 15.6c-1.6 17-13.2 37.8-42.5 30.5z" fill="#64BA8C" p-id="10228"></path><path d="M175 958c0-8.8 150.9-16 337-16s337 7.2 337 16-150.9 16-337 16-337-7.2-337-16z" fill="#EEEFF3" p-id="10229"></path>
</svg>