<svg width="800" height="800" xmlns="http://www.w3.org/2000/svg" class="icon">
	<g>
		<title>background</title>
		<rect x="-1" y="-1" width="802" height="802" id="canvas_background" fill="none"/>
	</g>

	<g>
		<title>Layer 1</title>
		<path d="m202.066278,327.041307l147,0l-9.5,210.7c0,7.9 -6.4,14.3 -14.3,14.3l-104.2,0c-7.9,0 -14.3,-6.4 -14.3,-14.3c0,-53.7 -2.7,-107.5 -4.1,-161.2l-0.6,-49.5z" fill="#FFE9BE" id="svg_8"/>
		<path d="m203.066278,308.041307c0,-9.4 7.6,-17 17,-17l108,0c9.4,0 17,7.6 17,17s-7.6,17 -17,17l-108,0c-9.4,0 -17,-7.6 -17,-17z" fill="#FFC95C" id="svg_9"/>
		<path d="m189.066278,318.041307c0,-6.1 4.9,-11 11,-11l150,0c6.1,0 11,4.9 11,11s-4.9,11 -11,11l-150,0c-6.1,0 -11,-4.9 -11,-11z" fill="#FFAC05" id="svg_10"/>
		<path d="m236.066278,417.041307c0,-23.2 18.8,-42 42,-42s42,18.8 42,42s-18.8,42 -42,42s-42,-18.8 -42,-42z" fill="#FFDF9D" id="svg_11"/>
		<path d="m293.766278,437.741307s6.9,-17.2 -7.1,-30.4c-13.9,-13 -33.6,-7.9 -33.6,-7.9s4.6,2.7 5.6,12.9c1.2,14.2 10.8,31.5 35.1,25.4z" fill="#64BA8C" id="svg_12"/>
		<path d="m603.066278,335.041307l-147,0l9.5,210.8c0,7.9 6.4,14.3 14.3,14.3l104.2,0c7.9,0 14.3,-6.4 14.3,-14.3c0,-53.7 2.7,-107.5 4.1,-161.2l0.6,-49.6z" fill="#BDE1CE" id="svg_13"/>
		<path d="m603.066278,316.041307c0,-9.4 -7.6,-17 -17,-17l-109,0c-9.4,0 -17,7.6 -17,17s7.6,17 17,17l109,0c9.4,0 17,-7.6 17,-17z" fill="#8BCBA9" id="svg_14"/>
		<path d="m617.066278,326.041307c0,-6.1 -4.9,-11 -11,-11l-150,0c-6.1,0 -11,4.9 -11,11s4.9,11 11,11l150,0c6.1,0 11,-4.9 11,-11z" fill="#64BA8C" id="svg_15"/>
		<path d="m570.066278,425.041307c0,-23.2 -18.8,-42 -42,-42s-42,18.8 -42,42s18.8,42 42,42s42,-18.8 42,-42z" fill="#F2F2F2" id="svg_16"/>
		<path d="m511.766278,445.741307s-6.9,-17.2 7.2,-30.4c13.9,-13 33.6,-7.9 33.6,-7.9s-4.6,2.8 -5.6,12.9c-1.3,14.2 -10.9,31.5 -35.2,25.4z" fill="#64BA8C" id="svg_17"/>
		<path d="m317.066278,287.041307l178,0l-11.5,254.8c0,9.5 -7.7,17.2 -17.3,17.2l-126.2,0c-9.5,0 -17.3,-7.7 -17.3,-17.2c0,-65 -3.3,-129.9 -4.9,-194.9l-0.8,-59.9z" fill="#FE9FA5" id="svg_18"/>
		<path d="m318.066278,264.541307c0,-11.3 9.2,-20.5 20.5,-20.5l131,0c11.3,0 20.5,9.2 20.5,20.5s-9.2,20.5 -20.5,20.5l-131,0c-11.3,0 -20.5,-9.2 -20.5,-20.5z" fill="#FE5F69" id="svg_19"/>
		<path d="m301.066278,276.041307c0,-7.2 5.8,-13 13,-13l182,0c7.2,0 13,5.8 13,13s-5.8,13 -13,13l-182,0c-7.2,0 -13,-5.8 -13,-13z" fill="#FD0818" id="svg_20"/>
		<path d="m358.066278,396.541307c0,-27.9 22.6,-50.5 50.5,-50.5s50.5,22.6 50.5,50.5s-22.6,50.5 -50.5,50.5s-50.5,-22.6 -50.5,-50.5z" fill="#FFDFE1" id="svg_21"/>
		<path d="m387.266278,422.041307s-8.4,-20.8 8.6,-36.6c16.8,-15.7 40.6,-9.5 40.6,-9.5s-5.6,3.3 -6.7,15.6c-1.6,17 -13.2,37.8 -42.5,30.5z" fill="#64BA8C" id="svg_22"/>
	</g>
</svg>